<svg xmlns="http://www.w3.org/2000/svg" xmlns:xlink="http://www.w3.org/1999/xlink" x="0px" y="0px" width="0" height="0">
  <desc>


--------------------------------------------------------
PLUS
--------------------------------------------------------
  </desc>
  <symbol id="plus" viewBox="0 0 24 24"><g><g id="Layer_2"><g><path d="M12,5v14M5,12h14" fill="none" stroke="currentColor" stroke-width="2.3" stroke-linecap="round"/></g></g></g></symbol>

  <desc>
--------------------------------------------------------
TRASH
--------------------------------------------------------
  </desc>
  <symbol id="trash" viewBox="0 0 24 24"><g><g id="Layer_2"><g><path d="M4,7h16M10,11v6M14,11v6M6,7l1,14h10l1,-14M9,7l1,-3h4l1,3" fill="none" stroke="currentColor" stroke-width="2" stroke-linecap="round" stroke-linejoin="round"/></g></g></g></symbol>

  <desc>
--------------------------------------------------------
X
--------------------------------------------------------
  </desc>
  <symbol id="x" viewBox="0 0 24 24"><g><g id="Layer_2"><g><path d="M6,6l12,12M18,6L6,18" fill="none" stroke="currentColor" stroke-width="2.2" stroke-linecap="round"/></g></g></g></symbol>

  <desc>
--------------------------------------------------------
IMAGE
--------------------------------------------------------
  </desc>
  <symbol id="image" viewBox="0 0 24 24"><g><g id="Layer_2"><g><path d="M3,7c0,-1.66,1.34,-3,3,-3h12c1.66,0,3,1.34,3,3v10c0,1.66,-1.34,3,-3,3H6c-1.66,0,-3,-1.34,-3,-3V7zM7,16l3.5,-4l3,3l2,-2.2L19,16" fill="none" stroke="currentColor" stroke-width="2" stroke-linecap="round" stroke-linejoin="round"/><path d="M8.5,10c0.77,0,1.4,-0.63,1.4,-1.4s-0.63,-1.4,-1.4,-1.4s-1.4,0.63,-1.4,1.4S7.73,10,8.5,10z" fill="currentColor" stroke="none"/></g></g></g></symbol>

  <desc>
--------------------------------------------------------
DOWNLOAD
--------------------------------------------------------
  </desc>
  <symbol id="download" viewBox="0 0 24 24"><g><g id="Layer_2"><g><path d="M12,4v10M8,10l4,4l4,-4M5,19h14" fill="none" stroke="currentColor" stroke-width="2.2" stroke-linecap="round" stroke-linejoin="round"/></g></g></g></symbol>

  <desc>
--------------------------------------------------------
CHEVRON LEFT
--------------------------------------------------------
  </desc>
  <symbol id="chevron-left" viewBox="0 0 24 24"><g><g id="Layer_2"><g><path d="M15,5l-7,7l7,7" fill="none" stroke="currentColor" stroke-width="2.3" stroke-linecap="round" stroke-linejoin="round"/></g></g></g></symbol>

  <desc>
--------------------------------------------------------
CHEVRON RIGHT
--------------------------------------------------------
  </desc>
  <symbol id="chevron-right" viewBox="0 0 24 24"><g><g id="Layer_2"><g><path d="M9,5l7,7l-7,7" fill="none" stroke="currentColor" stroke-width="2.3" stroke-linecap="round" stroke-linejoin="round"/></g></g></g></symbol>

  <desc>
--------------------------------------------------------
ZOOM IN
--------------------------------------------------------
  </desc>
  <symbol id="zoom-in" viewBox="0 0 24 24"><g><g id="Layer_2"><g><path d="M10.5,17c3.59,0,6.5,-2.91,6.5,-6.5S14.09,4,10.5,4S4,6.91,4,10.5S6.91,17,10.5,17zM10.5,7.5v6M7.5,10.5h6M15.5,15.5L21,21" fill="none" stroke="currentColor" stroke-width="2.1" stroke-linecap="round" stroke-linejoin="round"/></g></g></g></symbol>

  <desc>
--------------------------------------------------------
ZOOM OUT
--------------------------------------------------------
  </desc>
  <symbol id="zoom-out" viewBox="0 0 24 24"><g><g id="Layer_2"><g><path d="M10.5,17c3.59,0,6.5,-2.91,6.5,-6.5S14.09,4,10.5,4S4,6.91,4,10.5S6.91,17,10.5,17zM7.5,10.5h6M15.5,15.5L21,21" fill="none" stroke="currentColor" stroke-width="2.1" stroke-linecap="round" stroke-linejoin="round"/></g></g></g></symbol>

  <desc>
--------------------------------------------------------
FIT
--------------------------------------------------------
  </desc>
  <symbol id="fit" viewBox="0 0 24 24"><g><g id="Layer_2"><g><path d="M8,4H5C4.45,4,4,4.45,4,5v3M16,4h3c0.55,0,1,0.45,1,1v3M8,20H5c-0.55,0,-1,-0.45,-1,-1v-3M16,20h3c0.55,0,1,-0.45,1,-1v-3M9,9h6v6H9z" fill="none" stroke="currentColor" stroke-width="2.1" stroke-linecap="round" stroke-linejoin="round"/></g></g></g></symbol>
</svg>
